# xmcd
#
# Track frame offsets: 
#        150
#        16442
#        27510
#        39920
#        58314
#        79328
#        95359
#        109809
#        126684
#        142983
#
# Disc length: 2142 seconds
#
# Revision: 0
# Processed by: cddbd v1.5.2PL0 Copyright (c) Steve Scherf et al.
# Submitted via: ExactAudioCopy v1.3
#
DISCID=8b085c0a
DTITLE=Carlo Ditta - Hungry for Love
DYEAR=2019
DGENRE=Blues
TTITLE0=Hungry for Love
TTITLE1=A Gypsy Woman Told Me
TTITLE2=La Muchahca Cha Cha
TTITLE3=Agnes English
TTITLE4=Working so Hard for My Baby's Love
TTITLE5=Pass the Hatchet
TTITLE6=Life in Heaven
TTITLE7=I'm Here to Get My Baby out of Jail
TTITLE8=It's up to You
TTITLE9=The House of the Rising Sun
EXTD=
EXTT0=
EXTT1=
EXTT2=
EXTT3=
EXTT4=
EXTT5=
EXTT6=
EXTT7=
EXTT8=
EXTT9=
PLAYORDER=
